<svg width="117" height="32" viewBox="0 0 117 32" fill="none" xmlns="http://www.w3.org/2000/svg">
<path d="M27.3066 6.42133C27.0653 6.42133 26.8253 6.336 26.6333 6.16C23.6906 3.47733 19.9146 2 15.9999 2C12.0853 2 8.30929 3.47733 5.36663 6.16133C4.95729 6.53333 4.32529 6.50267 3.95329 6.096C3.58129 5.688 3.61063 5.05467 4.01863 4.68267C7.33196 1.66267 11.5866 0 15.9999 0C20.4133 0 24.6679 1.66267 27.9813 4.68267C28.3893 5.05467 28.4186 5.68667 28.0466 6.096C27.8493 6.312 27.5786 6.42133 27.3066 6.42133Z" fill="#A66A11"/>
<path d="M28.9999 12.956C28.6786 12.956 28.3613 12.8013 28.1693 12.5133C25.3933 8.38 20.844 5.912 16 5.912C11.156 5.912 6.60666 8.38 3.83066 12.5133C3.52266 12.9733 2.89999 13.096 2.44266 12.7867C1.98399 12.4787 1.86132 11.8573 2.16932 11.3987C5.31732 6.712 10.488 3.91333 16 3.91333C21.5119 3.91333 26.6826 6.712 29.8306 11.4C30.1386 11.8587 30.0173 12.48 29.5573 12.788C29.3866 12.9013 29.1933 12.956 28.9999 12.956Z" fill="#A66A11"/>
<path d="M12.8414 32C12.5841 32 12.3267 31.9013 12.1307 31.704C11.9121 31.484 6.78809 26.2533 6.78809 21.2173C6.78809 15.9907 10.9201 11.7387 16.0001 11.7387C21.0801 11.7387 25.2121 15.9907 25.2121 21.2173C25.2121 21.7693 24.7641 22.2173 24.2121 22.2173C23.6601 22.2173 23.2121 21.7693 23.2121 21.2173C23.2121 17.0933 19.9774 13.7387 16.0001 13.7387C12.0227 13.7387 8.78809 17.0933 8.78809 21.2173C8.78809 25.44 13.5041 30.248 13.5521 30.296C13.9414 30.688 13.9387 31.3213 13.5454 31.7107C13.3507 31.904 13.0961 32 12.8414 32Z" fill="#A66A11"/>
<path d="M19.1589 32C16.7536 32 11.1776 27.424 10.6376 22.328C10.4469 20.5267 11.0202 18.684 12.1696 17.3987C13.1696 16.2813 14.5202 15.6613 15.9722 15.6533H16.0002C17.4162 15.6533 18.7549 16.2093 19.7736 17.2213C20.8376 18.2787 21.4229 19.6987 21.4229 21.2187V21.8707C21.4229 23.4773 22.6736 24.784 24.2122 24.784C25.7509 24.784 27.0029 23.4773 27.0029 21.8707V21.6427C27.0029 15.416 22.4922 10.236 16.7336 9.85201C13.7309 9.64801 10.8509 10.6853 8.62822 12.7627C6.32156 14.92 4.99889 18.0027 4.99889 21.2187C4.99889 23.864 5.89489 26.4413 7.52156 28.476C7.86556 28.908 7.79622 29.536 7.36422 29.8813C6.93356 30.2267 6.30422 30.156 5.95756 29.724C4.04956 27.336 2.99756 24.3147 2.99756 21.2173C2.99756 17.4493 4.55222 13.8347 7.26022 11.3013C9.89089 8.84001 13.3016 7.61601 16.8642 7.85468C23.6696 8.30935 29.0016 14.3653 29.0016 21.6413V21.8693C29.0016 24.5787 26.8522 26.7827 24.2109 26.7827C21.5696 26.7827 19.4216 24.5787 19.4216 21.8693V21.2173C19.4216 20.2333 19.0456 19.3187 18.3629 18.6387C17.7229 18.0013 16.8842 17.652 16.0002 17.652C15.9936 17.652 15.9882 17.652 15.9816 17.652C14.8549 17.6573 14.0962 18.2427 13.6589 18.732C12.8789 19.6027 12.4922 20.8693 12.6242 22.1173C13.0656 26.2747 17.8429 30.0013 19.1576 30.0013C19.7096 30.0013 20.1576 30.4493 20.1576 31.0013C20.1576 31.5533 19.7109 32 19.1589 32Z" fill="#A66A11"/>
<path d="M22.8694 30.044C19.2908 30.044 14.9214 25.6707 14.9214 20.5653C14.9214 20.0133 15.3694 19.5653 15.9214 19.5653C16.4734 19.5653 16.9214 20.0133 16.9214 20.5653C16.9214 24.5227 20.2481 28.044 22.8694 28.044C23.4214 28.044 23.8694 28.492 23.8694 29.044C23.8694 29.596 23.4214 30.044 22.8694 30.044Z" fill="#A66A11"/>
<path d="M47.5881 10.8L42.7401 22H40.1801L35.3481 10.8H38.1481L41.5561 18.8L45.0121 10.8H47.5881ZM51.8026 22.128C50.8959 22.128 50.0799 21.9413 49.3546 21.568C48.6399 21.184 48.0799 20.656 47.6746 19.984C47.2693 19.312 47.0666 18.5493 47.0666 17.696C47.0666 16.8427 47.2693 16.08 47.6746 15.408C48.0799 14.736 48.6399 14.2133 49.3546 13.84C50.0799 13.456 50.8959 13.264 51.8026 13.264C52.7093 13.264 53.5199 13.456 54.2346 13.84C54.9493 14.2133 55.5093 14.736 55.9146 15.408C56.3199 16.08 56.5226 16.8427 56.5226 17.696C56.5226 18.5493 56.3199 19.312 55.9146 19.984C55.5093 20.656 54.9493 21.184 54.2346 21.568C53.5199 21.9413 52.7093 22.128 51.8026 22.128ZM51.8026 20.08C52.4426 20.08 52.9653 19.8667 53.3706 19.44C53.7866 19.0027 53.9946 18.4213 53.9946 17.696C53.9946 16.9707 53.7866 16.3947 53.3706 15.968C52.9653 15.5307 52.4426 15.312 51.8026 15.312C51.1626 15.312 50.6346 15.5307 50.2186 15.968C49.8026 16.3947 49.5946 16.9707 49.5946 17.696C49.5946 18.4213 49.8026 19.0027 50.2186 19.44C50.6346 19.8667 51.1626 20.08 51.8026 20.08ZM63.743 21.584C63.4976 21.7653 63.1936 21.904 62.831 22C62.479 22.0853 62.1056 22.128 61.711 22.128C60.687 22.128 59.8923 21.8667 59.327 21.344C58.7723 20.8213 58.495 20.0533 58.495 19.04V15.504H57.167V13.584H58.495V11.488H60.991V13.584H63.135V15.504H60.991V19.008C60.991 19.3707 61.0816 19.6533 61.263 19.856C61.455 20.048 61.7216 20.144 62.063 20.144C62.4576 20.144 62.7936 20.0373 63.071 19.824L63.743 21.584ZM73.3105 17.728C73.3105 17.76 73.2945 17.984 73.2625 18.4H66.7505C66.8678 18.9333 67.1451 19.3547 67.5825 19.664C68.0198 19.9733 68.5638 20.128 69.2145 20.128C69.6625 20.128 70.0571 20.064 70.3985 19.936C70.7505 19.7973 71.0758 19.584 71.3745 19.296L72.7025 20.736C71.8918 21.664 70.7078 22.128 69.1505 22.128C68.1798 22.128 67.3211 21.9413 66.5745 21.568C65.8278 21.184 65.2518 20.656 64.8465 19.984C64.4411 19.312 64.2385 18.5493 64.2385 17.696C64.2385 16.8533 64.4358 16.096 64.8305 15.424C65.2358 14.7413 65.7851 14.2133 66.4785 13.84C67.1825 13.456 67.9665 13.264 68.8305 13.264C69.6731 13.264 70.4358 13.4453 71.1185 13.808C71.8011 14.1707 72.3345 14.6933 72.7185 15.376C73.1131 16.048 73.3105 16.832 73.3105 17.728ZM68.8465 15.152C68.2811 15.152 67.8065 15.312 67.4225 15.632C67.0385 15.952 66.8038 16.3893 66.7185 16.944H70.9585C70.8731 16.4 70.6385 15.968 70.2545 15.648C69.8705 15.3173 69.4011 15.152 68.8465 15.152ZM89.9515 10.8V22H87.8235L82.2395 15.2V22H79.6795V10.8H81.8235L87.3915 17.6V10.8H89.9515ZM96.5213 22.128C95.6147 22.128 94.7987 21.9413 94.0733 21.568C93.3587 21.184 92.7987 20.656 92.3933 19.984C91.988 19.312 91.7853 18.5493 91.7853 17.696C91.7853 16.8427 91.988 16.08 92.3933 15.408C92.7987 14.736 93.3587 14.2133 94.0733 13.84C94.7987 13.456 95.6147 13.264 96.5213 13.264C97.428 13.264 98.2387 13.456 98.9533 13.84C99.668 14.2133 100.228 14.736 100.633 15.408C101.039 16.08 101.241 16.8427 101.241 17.696C101.241 18.5493 101.039 19.312 100.633 19.984C100.228 20.656 99.668 21.184 98.9533 21.568C98.2387 21.9413 97.428 22.128 96.5213 22.128ZM96.5213 20.08C97.1613 20.08 97.684 19.8667 98.0893 19.44C98.5053 19.0027 98.7133 18.4213 98.7133 17.696C98.7133 16.9707 98.5053 16.3947 98.0893 15.968C97.684 15.5307 97.1613 15.312 96.5213 15.312C95.8813 15.312 95.3533 15.5307 94.9373 15.968C94.5213 16.3947 94.3133 16.9707 94.3133 17.696C94.3133 18.4213 94.5213 19.0027 94.9373 19.44C95.3533 19.8667 95.8813 20.08 96.5213 20.08ZM116.499 13.392L113.379 22H110.979L109.043 16.656L107.043 22H104.643L101.539 13.392H103.891L105.923 19.216L108.035 13.392H110.147L112.195 19.216L114.291 13.392H116.499Z" fill="#A66A11"/>
</svg>
