<svg width="32" height="32" viewBox="0 0 32 32" fill="none" xmlns="http://www.w3.org/2000/svg">
<g clip-path="url(#clip0)">
<path d="M27.3067 6.42133C27.0654 6.42133 26.8254 6.336 26.6334 6.16C23.6907 3.47733 19.9147 2 16 2C12.0854 2 8.30935 3.47733 5.36669 6.16133C4.95735 6.53333 4.32535 6.50267 3.95335 6.096C3.58135 5.688 3.61069 5.05467 4.01869 4.68267C7.33202 1.66267 11.5867 0 16 0C20.4134 0 24.668 1.66267 27.9814 4.68267C28.3894 5.05467 28.4187 5.68667 28.0467 6.096C27.8494 6.312 27.5787 6.42133 27.3067 6.42133V6.42133Z" fill="#51A4E8"/>
<path d="M29 12.956C28.6787 12.956 28.3614 12.8013 28.1694 12.5133C25.3934 8.38 20.8441 5.912 16.0001 5.912C11.1561 5.912 6.60672 8.38 3.83072 12.5133C3.52272 12.9733 2.90005 13.096 2.44272 12.7867C1.98405 12.4787 1.86138 11.8573 2.16938 11.3987C5.31738 6.712 10.4881 3.91333 16.0001 3.91333C21.512 3.91333 26.6827 6.712 29.8307 11.4C30.1387 11.8587 30.0174 12.48 29.5574 12.788C29.3867 12.9013 29.1934 12.956 29 12.956Z" fill="#51A4E8"/>
<path d="M12.8413 32C12.584 32 12.3266 31.9013 12.1306 31.704C11.912 31.484 6.78796 26.2533 6.78796 21.2173C6.78796 15.9907 10.92 11.7387 16 11.7387C21.08 11.7387 25.212 15.9907 25.212 21.2173C25.212 21.7693 24.764 22.2173 24.212 22.2173C23.66 22.2173 23.212 21.7693 23.212 21.2173C23.212 17.0933 19.9773 13.7387 16 13.7387C12.0226 13.7387 8.78796 17.0933 8.78796 21.2173C8.78796 25.44 13.504 30.248 13.552 30.296C13.9413 30.688 13.9386 31.3213 13.5453 31.7107C13.3506 31.904 13.096 32 12.8413 32V32Z" fill="#51A4E8"/>
<path d="M19.1587 32C16.7534 32 11.1774 27.424 10.6374 22.328C10.4467 20.5267 11.02 18.684 12.1694 17.3987C13.1694 16.2813 14.52 15.6613 15.972 15.6533H16C17.416 15.6533 18.7547 16.2093 19.7734 17.2213C20.8374 18.2787 21.4227 19.6987 21.4227 21.2187V21.8707C21.4227 23.4773 22.6734 24.784 24.212 24.784C25.7507 24.784 27.0027 23.4773 27.0027 21.8707V21.6427C27.0027 15.416 22.492 10.236 16.7334 9.85201C13.7307 9.64801 10.8507 10.6853 8.62804 12.7627C6.32138 14.92 4.99871 18.0027 4.99871 21.2187C4.99871 23.864 5.89471 26.4413 7.52138 28.476C7.86538 28.908 7.79604 29.536 7.36404 29.8813C6.93338 30.2267 6.30404 30.156 5.95738 29.724C4.04938 27.336 2.99738 24.3147 2.99738 21.2173C2.99738 17.4493 4.55204 13.8347 7.26004 11.3013C9.89071 8.84001 13.3014 7.61601 16.864 7.85468C23.6694 8.30935 29.0014 14.3653 29.0014 21.6413V21.8693C29.0014 24.5787 26.852 26.7827 24.2107 26.7827C21.5694 26.7827 19.4214 24.5787 19.4214 21.8693V21.2173C19.4214 20.2333 19.0454 19.3187 18.3627 18.6387C17.7227 18.0013 16.884 17.652 16 17.652C15.9934 17.652 15.988 17.652 15.9814 17.652C14.8547 17.6573 14.096 18.2427 13.6587 18.732C12.8787 19.6027 12.492 20.8693 12.624 22.1173C13.0654 26.2747 17.8427 30.0013 19.1574 30.0013C19.7094 30.0013 20.1574 30.4493 20.1574 31.0013C20.1574 31.5533 19.7107 32 19.1587 32V32Z" fill="#51A4E8"/>
<path d="M22.8693 30.044C19.2907 30.044 14.9213 25.6707 14.9213 20.5653C14.9213 20.0133 15.3693 19.5653 15.9213 19.5653C16.4733 19.5653 16.9213 20.0133 16.9213 20.5653C16.9213 24.5227 20.248 28.044 22.8693 28.044C23.4213 28.044 23.8693 28.492 23.8693 29.044C23.8693 29.596 23.4213 30.044 22.8693 30.044Z" fill="#51A4E8"/>
</g>
<defs>
<clipPath id="clip0">
<rect width="32" height="32" fill="white"/>
</clipPath>
</defs>
</svg>
