<svg width="117" height="32" viewBox="0 0 117 32" fill="none" xmlns="http://www.w3.org/2000/svg">
<g clip-path="url(#clip0)">
<path d="M27.3067 6.42133C27.0654 6.42133 26.8254 6.336 26.6334 6.16C23.6907 3.47733 19.9147 2 16 2C12.0854 2 8.30935 3.47733 5.36669 6.16133C4.95735 6.53333 4.32535 6.50267 3.95335 6.096C3.58135 5.688 3.61069 5.05467 4.01869 4.68267C7.33202 1.66267 11.5867 0 16 0C20.4134 0 24.668 1.66267 27.9814 4.68267C28.3894 5.05467 28.4187 5.68667 28.0467 6.096C27.8494 6.312 27.5787 6.42133 27.3067 6.42133V6.42133Z" fill="#51A4E8"/>
<path d="M29 12.956C28.6787 12.956 28.3614 12.8013 28.1694 12.5133C25.3934 8.38 20.8441 5.912 16.0001 5.912C11.1561 5.912 6.60672 8.38 3.83072 12.5133C3.52272 12.9733 2.90005 13.096 2.44272 12.7867C1.98405 12.4787 1.86138 11.8573 2.16938 11.3987C5.31738 6.712 10.4881 3.91333 16.0001 3.91333C21.512 3.91333 26.6827 6.712 29.8307 11.4C30.1387 11.8587 30.0174 12.48 29.5574 12.788C29.3867 12.9013 29.1934 12.956 29 12.956Z" fill="#51A4E8"/>
<path d="M12.8413 32C12.584 32 12.3266 31.9013 12.1306 31.704C11.912 31.484 6.78796 26.2533 6.78796 21.2173C6.78796 15.9907 10.92 11.7387 16 11.7387C21.08 11.7387 25.212 15.9907 25.212 21.2173C25.212 21.7693 24.764 22.2173 24.212 22.2173C23.66 22.2173 23.212 21.7693 23.212 21.2173C23.212 17.0933 19.9773 13.7387 16 13.7387C12.0226 13.7387 8.78796 17.0933 8.78796 21.2173C8.78796 25.44 13.504 30.248 13.552 30.296C13.9413 30.688 13.9386 31.3213 13.5453 31.7107C13.3506 31.904 13.096 32 12.8413 32V32Z" fill="#51A4E8"/>
<path d="M19.1587 32C16.7534 32 11.1774 27.424 10.6374 22.328C10.4467 20.5267 11.02 18.684 12.1694 17.3987C13.1694 16.2813 14.52 15.6613 15.972 15.6533H16C17.416 15.6533 18.7547 16.2093 19.7734 17.2213C20.8374 18.2787 21.4227 19.6987 21.4227 21.2187V21.8707C21.4227 23.4773 22.6734 24.784 24.212 24.784C25.7507 24.784 27.0027 23.4773 27.0027 21.8707V21.6427C27.0027 15.416 22.492 10.236 16.7334 9.85201C13.7307 9.64801 10.8507 10.6853 8.62804 12.7627C6.32138 14.92 4.99871 18.0027 4.99871 21.2187C4.99871 23.864 5.89471 26.4413 7.52138 28.476C7.86538 28.908 7.79604 29.536 7.36404 29.8813C6.93338 30.2267 6.30404 30.156 5.95738 29.724C4.04938 27.336 2.99738 24.3147 2.99738 21.2173C2.99738 17.4493 4.55204 13.8347 7.26004 11.3013C9.89071 8.84001 13.3014 7.61601 16.864 7.85468C23.6694 8.30935 29.0014 14.3653 29.0014 21.6413V21.8693C29.0014 24.5787 26.852 26.7827 24.2107 26.7827C21.5694 26.7827 19.4214 24.5787 19.4214 21.8693V21.2173C19.4214 20.2333 19.0454 19.3187 18.3627 18.6387C17.7227 18.0013 16.884 17.652 16 17.652C15.9934 17.652 15.988 17.652 15.9814 17.652C14.8547 17.6573 14.096 18.2427 13.6587 18.732C12.8787 19.6027 12.492 20.8693 12.624 22.1173C13.0654 26.2747 17.8427 30.0013 19.1574 30.0013C19.7094 30.0013 20.1574 30.4493 20.1574 31.0013C20.1574 31.5533 19.7107 32 19.1587 32V32Z" fill="#51A4E8"/>
<path d="M22.8693 30.044C19.2907 30.044 14.9213 25.6707 14.9213 20.5653C14.9213 20.0133 15.3693 19.5653 15.9213 19.5653C16.4733 19.5653 16.9213 20.0133 16.9213 20.5653C16.9213 24.5227 20.248 28.044 22.8693 28.044C23.4213 28.044 23.8693 28.492 23.8693 29.044C23.8693 29.596 23.4213 30.044 22.8693 30.044Z" fill="#51A4E8"/>
</g>
<path d="M47.5882 10.8L42.7402 22H40.1802L35.3482 10.8H38.1482L41.5562 18.8L45.0122 10.8H47.5882ZM51.8027 22.128C50.896 22.128 50.08 21.9413 49.3547 21.568C48.64 21.184 48.08 20.656 47.6747 19.984C47.2694 19.312 47.0667 18.5493 47.0667 17.696C47.0667 16.8427 47.2694 16.08 47.6747 15.408C48.08 14.736 48.64 14.2133 49.3547 13.84C50.08 13.456 50.896 13.264 51.8027 13.264C52.7094 13.264 53.52 13.456 54.2347 13.84C54.9494 14.2133 55.5094 14.736 55.9147 15.408C56.32 16.08 56.5227 16.8427 56.5227 17.696C56.5227 18.5493 56.32 19.312 55.9147 19.984C55.5094 20.656 54.9494 21.184 54.2347 21.568C53.52 21.9413 52.7094 22.128 51.8027 22.128ZM51.8027 20.08C52.4427 20.08 52.9654 19.8667 53.3707 19.44C53.7867 19.0027 53.9947 18.4213 53.9947 17.696C53.9947 16.9707 53.7867 16.3947 53.3707 15.968C52.9654 15.5307 52.4427 15.312 51.8027 15.312C51.1627 15.312 50.6347 15.5307 50.2187 15.968C49.8027 16.3947 49.5947 16.9707 49.5947 17.696C49.5947 18.4213 49.8027 19.0027 50.2187 19.44C50.6347 19.8667 51.1627 20.08 51.8027 20.08ZM63.7431 21.584C63.4977 21.7653 63.1937 21.904 62.8311 22C62.4791 22.0853 62.1057 22.128 61.7111 22.128C60.6871 22.128 59.8924 21.8667 59.3271 21.344C58.7724 20.8213 58.4951 20.0533 58.4951 19.04V15.504H57.1671V13.584H58.4951V11.488H60.9911V13.584H63.1351V15.504H60.9911V19.008C60.9911 19.3707 61.0817 19.6533 61.2631 19.856C61.4551 20.048 61.7217 20.144 62.0631 20.144C62.4577 20.144 62.7937 20.0373 63.0711 19.824L63.7431 21.584ZM73.3106 17.728C73.3106 17.76 73.2946 17.984 73.2626 18.4H66.7506C66.8679 18.9333 67.1452 19.3547 67.5826 19.664C68.0199 19.9733 68.5639 20.128 69.2146 20.128C69.6626 20.128 70.0572 20.064 70.3986 19.936C70.7506 19.7973 71.0759 19.584 71.3746 19.296L72.7026 20.736C71.8919 21.664 70.7079 22.128 69.1506 22.128C68.1799 22.128 67.3212 21.9413 66.5746 21.568C65.8279 21.184 65.2519 20.656 64.8466 19.984C64.4412 19.312 64.2386 18.5493 64.2386 17.696C64.2386 16.8533 64.4359 16.096 64.8306 15.424C65.2359 14.7413 65.7852 14.2133 66.4786 13.84C67.1826 13.456 67.9666 13.264 68.8306 13.264C69.6732 13.264 70.4359 13.4453 71.1186 13.808C71.8012 14.1707 72.3346 14.6933 72.7186 15.376C73.1132 16.048 73.3106 16.832 73.3106 17.728ZM68.8466 15.152C68.2812 15.152 67.8066 15.312 67.4226 15.632C67.0386 15.952 66.8039 16.3893 66.7186 16.944H70.9586C70.8732 16.4 70.6386 15.968 70.2546 15.648C69.8706 15.3173 69.4012 15.152 68.8466 15.152ZM89.9516 10.8V22H87.8236L82.2396 15.2V22H79.6796V10.8H81.8236L87.3916 17.6V10.8H89.9516ZM96.5214 22.128C95.6148 22.128 94.7988 21.9413 94.0734 21.568C93.3588 21.184 92.7988 20.656 92.3934 19.984C91.9881 19.312 91.7854 18.5493 91.7854 17.696C91.7854 16.8427 91.9881 16.08 92.3934 15.408C92.7988 14.736 93.3588 14.2133 94.0734 13.84C94.7988 13.456 95.6148 13.264 96.5214 13.264C97.4281 13.264 98.2388 13.456 98.9534 13.84C99.6681 14.2133 100.228 14.736 100.633 15.408C101.039 16.08 101.241 16.8427 101.241 17.696C101.241 18.5493 101.039 19.312 100.633 19.984C100.228 20.656 99.6681 21.184 98.9534 21.568C98.2388 21.9413 97.4281 22.128 96.5214 22.128ZM96.5214 20.08C97.1614 20.08 97.6841 19.8667 98.0894 19.44C98.5054 19.0027 98.7134 18.4213 98.7134 17.696C98.7134 16.9707 98.5054 16.3947 98.0894 15.968C97.6841 15.5307 97.1614 15.312 96.5214 15.312C95.8814 15.312 95.3534 15.5307 94.9374 15.968C94.5214 16.3947 94.3134 16.9707 94.3134 17.696C94.3134 18.4213 94.5214 19.0027 94.9374 19.44C95.3534 19.8667 95.8814 20.08 96.5214 20.08ZM116.499 13.392L113.379 22H110.979L109.043 16.656L107.043 22H104.643L101.539 13.392H103.891L105.923 19.216L108.035 13.392H110.147L112.195 19.216L114.291 13.392H116.499Z" fill="#51A4E8"/>
<defs>
<clipPath id="clip0">
<rect width="32" height="32" fill="white"/>
</clipPath>
</defs>
</svg>
